<svg xmlns="http://www.w3.org/2000/svg" width="85" height="23" viewBox="0 0 85 23">
    <path fill="#FFF" fill-rule="evenodd" d="M.912 22.232V1.368c0-.416.32-.768.768-.768h2.816c.416 0 .768.352.768.768v8.64L13.328.92c.128-.16.32-.32.608-.32h3.2c.608 0 .928.672.512 1.152L9.296 11.16l8.96 10.72c.32.416.064 1.12-.576 1.12h-3.488c-.32 0-.512-.128-.576-.224L5.264 12.472v9.76a.779.779 0 0 1-.768.768H1.68a.758.758 0 0 1-.768-.768zm26.194.16V1.208c0-.32.256-.608.608-.608h13.024c.352 0 .608.288.608.608v2.624c0 .32-.256.608-.608.608h-9.472v5.248h7.904a.63.63 0 0 1 .608.608v2.656a.608.608 0 0 1-.608.608h-7.904v5.6h9.472c.352 0 .608.288.608.608v2.624c0 .32-.256.608-.608.608H27.714a.608.608 0 0 1-.608-.608zm24.146 0V1.208c0-.32.256-.608.576-.608h7.584c6.176 0 11.232 5.024 11.232 11.168C70.644 17.976 65.588 23 59.412 23h-7.584c-.32 0-.576-.288-.576-.608zm4.128-3.296h3.648c4.16 0 7.2-3.136 7.2-7.328 0-4.16-3.04-7.296-7.2-7.296H55.38v14.624zm24.818 3.296V1.208A.63.63 0 0 1 80.806.6h2.976a.63.63 0 0 1 .608.608v21.184a.63.63 0 0 1-.608.608h-2.976a.63.63 0 0 1-.608-.608z"/>
</svg>
